<svg xmlns="http://www.w3.org/2000/svg" viewBox="0 0 48 48" width="48" height="48">
  <path fill="#FFC107" d="M43.6 20.5H42V20H24v8h11.3C33.9 32.7 29.4 36 24 36c-6.6 0-12-5.4-12-12s5.4-12 12-12c3.1 0 5.9 1.2 8 3.1l5.7-5.7C34.6 6.5 29.6 4 24 4 12.9 4 4 12.9 4 24s8.9 20 20 20c10 0 19-7.3 19-20 0-1.1-.1-2.2-.4-3.5z"/>
  <path fill="#FF3D00" d="M6.3 14.7l6.6 4.8C14.7 16 19 12 24 12c3.1 0 5.9 1.2 8 3.1l5.7-5.7C34.6 6.5 29.6 4 24 4c-7.3 0-13.6 3.9-17.7 10.7z"/>
  <path fill="#4CAF50" d="M24 44c5.2 0 10-2 13.6-5.2l-6.3-5.2C29.4 36 26.8 37 24 37c-5.3 0-9.8-3.5-11.4-8.4l-6.5 5C10.2 39.8 16.6 44 24 44z"/>
  <path fill="#1976D2" d="M43.6 20.5H42V20H24v8h11.3c-1.1 3-3.4 5.4-6.3 6.7l6.3 5.2C39.2 36.3 43 30.8 43 24c0-1.1-.1-2.2-.4-3.5z"/>
</svg>
